<svg width="40" height="40" viewBox="0 0 40 40" fill="none" xmlns="http://www.w3.org/2000/svg">
<path d="M34.5 24.5834C31.0834 14.25 23.25 21.8334 23.25 21.8334C23.25 21.8334 22.1667 21.9167 20.9167 22.3334C18.25 19.75 13.25 21.3334 13.25 21.3334C13.25 21.3334 4.00002 18.25 5.08335 28.5834C5.58335 33.0001 9.00002 35.8334 13.75 35.8334C16.1667 35.8334 18.25 35.0834 19.75 33.8334C22.25 36.0834 25.9167 36.5001 29.5834 34.8334C34.0834 32.8334 35.9167 28.8334 34.5 24.5834Z" fill="#FF1744"/>
<path d="M24.75 29.4167C24.4167 26.1667 27 20.25 29.1667 19.1667C26.1667 19.0833 23.25 21.8333 23.25 21.8333C23.25 21.8333 22.25 21.9167 21 22.3333C20.9167 22.25 20.8333 22.25 20.75 22.25C21.9167 23.3333 22.6667 25.3333 22.3333 28.5833C22.0833 30.75 21.1667 32.5 19.75 33.75C21 34.9167 24 37.0833 29.5833 34.8333C27 34.3333 25.0833 32.6667 24.75 29.4167Z" fill="#D50000"/>
<path d="M8.41668 29.0833C8.08335 29.0833 7.66668 28.8333 7.58335 28.4166C6.75002 24.9999 8.75002 23.5833 9.58335 23.0833C10 22.8333 10.5 22.9999 10.6667 23.4166C10.9167 23.8333 10.75 24.3333 10.3334 24.4999C9.50002 24.9166 8.66669 25.8333 9.16669 27.9166C9.25002 28.3333 9.00002 28.8333 8.58335 28.9166C8.50002 29.0833 8.50002 29.0833 8.41668 29.0833Z" fill="#FFCDD2"/>
<path d="M23.9999 20.25C23.9166 20 23.8333 19.8333 23.7499 19.5833C23.7499 19.5 23.6666 19.4166 23.6666 19.3333C23.5833 19.1666 23.5833 19 23.4999 18.9166C23.4166 18.75 23.4166 18.6666 23.3333 18.5C23.2499 18.3333 23.2499 18.25 23.2499 18.0833C23.1666 17.9166 23.1666 17.75 23.0833 17.6666C22.9999 17.5 22.9999 17.3333 22.9166 17.1666C22.9166 17.0833 22.8333 17 22.8333 16.9166C22.7499 16.75 22.7499 16.5833 22.7499 16.4166C22.7499 16.3333 22.7499 16.25 22.6666 16.1666C22.6666 16 22.5833 15.8333 22.5833 15.6666C22.5833 15.5833 22.5833 15.5 22.4999 15.4166C22.4999 15.25 22.4166 15.0833 22.4166 14.9166V14.75V14.25V14V13.5V13.3333V12.8333V12.6666V12.25V12V11.6666V11.4166V11.1666C22.4166 11.0833 22.4166 11 22.4999 10.8333V10.6666C22.4999 10.5833 22.5833 10.4166 22.5833 10.3333V10.1666C22.5833 9.99997 22.6666 9.91663 22.6666 9.74997V9.66663C22.6666 9.49997 22.7499 9.41663 22.7499 9.24997C23.2499 7.49997 24.0833 6.3333 24.4166 5.91663C24.4999 5.91663 24.5833 5.8333 24.5833 5.8333C24.9999 5.66663 25.1666 5.16663 24.9999 4.74997C24.8333 4.3333 24.5833 3.99997 24.1666 4.16663C24.1666 4.16663 24.0833 4.16663 24.0833 4.24997C23.9999 4.24997 23.9166 4.24997 23.8333 4.3333C23.7499 4.3333 23.7499 4.41663 23.6666 4.49997C12.0833 9.74997 12.4999 22.4166 12.4999 22.5C12.4999 22.9166 12.9166 23.3333 13.3333 23.3333C13.8333 23.3333 14.1666 22.9166 14.1666 22.5C14.1666 22.4166 13.8333 12.75 21.8333 7.3333C20.5833 10.4166 19.5833 15.75 23.4166 22.9166C23.5833 23.1666 23.8333 23.3333 24.1666 23.3333C24.3333 23.3333 24.4166 23.3333 24.5833 23.25C24.9166 23.0833 25.0833 22.75 24.9999 22.4166C24.9999 22.3333 24.9166 22.1666 24.9166 22.0833C24.7499 21.75 24.5833 21.4166 24.4166 21.1666V21.0833C24.2499 20.8333 24.0833 20.5 23.9999 20.25Z" fill="#795548"/>
<path d="M31.6668 15C30.1668 13.4166 34.0835 4.16663 24.1668 4.16663C18.5002 15.1666 31.6668 15 31.6668 15Z" fill="#4CAF50"/>
</svg>
