<svg width="60" height="60" viewBox="0 0 60 60" fill="none" xmlns="http://www.w3.org/2000/svg">
<path d="M14.9564 49.1319H13.3991C11.8964 49.1319 10.6719 47.9073 10.6719 46.4046V27.011C10.6719 25.5082 11.8964 24.2837 13.3991 24.2837H14.9564C16.4591 24.2837 17.6837 25.5082 17.6837 27.011V46.4046C17.6837 47.9073 16.4591 49.1319 14.9564 49.1319ZM13.3991 26.4655C13.0991 26.4655 12.8537 26.711 12.8537 27.011V46.4046C12.8537 46.7046 13.0991 46.9501 13.3991 46.9501H14.9564C15.2564 46.9501 15.5019 46.7046 15.5019 46.4046V27.011C15.5019 26.711 15.2564 26.4655 14.9564 26.4655H13.3991Z" fill="white"/>
<path d="M39.2127 49.1482H24.0982C23.9482 49.1482 23.7927 49.14 23.6372 49.1291H22.9091C20.6509 49.1291 18.8154 47.2773 18.8154 45V26.1982C18.8154 24.9982 19.3336 23.8609 20.2336 23.0755L20.5936 22.7645C21.3109 22.1427 21.9872 21.5564 22.6227 20.9127L31.2491 12.1827C32.1791 11.2418 33.4691 10.7618 34.7809 10.8655C36.0982 10.9691 37.3009 11.6536 38.0836 12.7445C39.3545 14.5145 39.12 17.0536 37.5436 18.6518L34.1672 22.0691H44.3045C47.0782 22.0691 49.3336 24.2073 49.3336 26.8336C49.3336 27.8727 48.9845 28.8627 48.3272 29.6918C47.94 30.1773 47.8063 30.8536 47.9754 31.4536C48.0873 31.8518 48.1445 32.2664 48.1445 32.6836C48.1445 33.7418 47.7845 34.7427 47.1082 35.5827C46.71 36.0736 46.5709 36.7773 46.7372 37.4618C46.8218 37.8109 46.8654 38.1709 46.8654 38.5364C46.8654 39.9955 46.1754 41.3509 44.9727 42.2591C44.46 42.6464 44.1845 43.3282 44.2336 44.0864C44.2391 44.1845 44.2445 44.2855 44.2445 44.3836C44.2445 47.0127 41.9891 49.1482 39.2154 49.1482H39.2127ZM34.4291 13.0336C33.8209 13.0336 33.2345 13.2764 32.7982 13.7182L24.1718 22.4482C23.4791 23.1491 22.7372 23.7927 22.02 24.4145L21.6627 24.7227C21.2372 25.0936 20.9918 25.6309 20.9918 26.1982V45C20.9918 46.0745 21.8482 46.9473 22.9036 46.9473L23.7872 46.9527C23.8936 46.9636 23.9972 46.9691 24.0954 46.9691H39.21C40.7809 46.9691 42.0573 45.81 42.0573 44.3864C42.0573 44.3345 42.0572 44.2855 42.0518 44.2336C41.9509 42.7391 42.5509 41.3509 43.6527 40.5191C44.3045 40.0255 44.6782 39.3027 44.6782 38.5364C44.6782 38.3482 44.6563 38.1627 44.6127 37.9827C44.2854 36.6382 44.58 35.2309 45.4063 34.2109C45.7663 33.7664 45.9572 33.24 45.9572 32.6864C45.9572 32.4709 45.9272 32.2555 45.87 32.0482C45.5072 30.7664 45.7854 29.3782 46.6118 28.3364C46.9609 27.8973 47.1463 27.3791 47.1463 26.8364C47.1463 25.4127 45.87 24.2536 44.2991 24.2536H32.8663C32.2063 24.2536 31.6118 23.8582 31.3582 23.2473C31.1018 22.6309 31.2382 21.9273 31.7072 21.4555L35.9891 17.1218C36.8291 16.2709 36.9682 14.9373 36.3082 14.0209C35.8936 13.4455 35.2909 13.0991 34.6063 13.0445C34.5463 13.0391 34.4863 13.0364 34.4263 13.0364L34.4291 13.0336Z" fill="white"/>
</svg>
