<svg width="60" height="60" viewBox="0 0 60 60" fill="none" xmlns="http://www.w3.org/2000/svg">
<g clip-path="url(#clip0_518_34)">
<path d="M54.6094 40.2186V17.367H43.1273C46.5261 13.5748 45.6989 9.40212 45.8203 8.57794C38.5866 8.59224 38.6849 8.54537 37.8395 8.62119C40.6441 3.56829 34.7065 -1.76081 30 1.38966C25.311 -1.74979 19.333 3.52716 22.1606 8.6213C21.3151 8.54548 21.4083 8.59236 14.1797 8.57806C14.2995 9.39146 13.4822 13.5841 16.8727 17.3671H5.39062V40.2187H0V41.9765C0 47.792 4.73133 52.5234 10.5469 52.5234H24.7266V56.039H21.2109V59.5546H38.7891V56.039H35.2734V52.5234H49.4531C55.2687 52.5234 60 47.792 60 41.9765V40.2187H54.6094V40.2186ZM42.0823 12.0936C41.2998 15.1229 38.5438 17.367 35.2734 17.367H31.9802C32.7627 14.3377 35.5187 12.0936 38.7891 12.0936H42.0823ZM26.9559 3.98548C28.2232 3.98548 28.6248 4.99646 30 6.21333C31.3761 4.99552 31.777 3.98548 33.0441 3.98548C34.7817 3.98548 35.6657 6.08759 34.4583 7.33025L30 11.4563L25.5417 7.33025C24.3348 6.08806 25.2177 3.98548 26.9559 3.98548ZM17.9177 12.0936H21.2109C24.4812 12.0936 27.2373 14.3377 28.0198 17.367H24.7266C21.4563 17.367 18.7002 15.1229 17.9177 12.0936ZM51.0938 20.8826V24.3983H43.9453V31.4295C43.9453 32.3988 43.1569 33.1873 42.1875 33.1873C41.2181 33.1873 40.4297 32.3988 40.4297 31.4295V24.3983H8.90625V20.8826H51.0938ZM8.90625 27.9139H36.9141V31.4295C36.9141 34.3373 39.2796 36.7029 42.1875 36.7029C45.0954 36.7029 47.4609 34.3373 47.4609 31.4295V27.9139H51.0938V40.2186H8.90625V27.9139ZM31.7578 56.0389H28.2422V52.5233H31.7578V56.0389ZM49.4531 49.0076C44.6603 49.0076 14.4771 49.0076 10.5469 49.0076C7.27664 49.0076 4.52051 46.7635 3.73805 43.7342H56.2618C55.4795 46.7635 52.7234 49.0076 49.4531 49.0076Z" fill="white"/>
</g>
<defs>
<clipPath id="clip0_518_34">
<rect width="60" height="60" fill="white"/>
</clipPath>
</defs>
</svg>
