<svg width="60" height="60" viewBox="0 0 60 60" fill="none" xmlns="http://www.w3.org/2000/svg">
<path d="M8.17544 29.9697V43.9839C8.17544 44.6968 8.77193 45.288 9.49123 45.288H13.8947C14.614 48.0004 17.0877 50 20.0351 50C22.9825 50 25.4737 48.0004 26.1754 45.288H43.1404C43.8596 48.0004 46.3333 50 49.2807 50C52.2281 50 54.7193 48.0004 55.4211 45.288H58.6842C59.4035 45.288 60 44.6968 60 43.9839V31.691C60 31.4128 59.9123 31.152 59.7544 30.9434L55.193 24.5622C54.9474 24.2144 54.5439 24.0058 54.1228 24.0058H44.614V19.9024C44.614 19.1895 44.0175 18.5983 43.2982 18.5983H19.0526C18.1404 14.2688 14.2632 11 9.63158 11C4.31579 11 0 15.2773 0 20.5457C0 25.3099 3.5614 29.2742 8.17544 29.9697ZM20.0351 47.3919C17.9825 47.3919 16.3158 45.7401 16.3158 43.7057C16.3158 41.6714 17.9825 40.0196 20.0351 40.0196C22.0877 40.0196 23.7544 41.6714 23.7544 43.7057C23.7544 45.7401 22.0702 47.3919 20.0351 47.3919ZM49.2807 47.3919C47.2281 47.3919 45.5614 45.7401 45.5614 43.7057C45.5614 41.6714 47.2281 40.0196 49.2807 40.0196C51.3333 40.0196 53 41.6714 53 43.7057C53 45.7401 51.3333 47.3919 49.2807 47.3919ZM57.3684 32.1257V32.3344H50.2105V26.6313H53.4386L57.3684 32.1257ZM47.5789 26.6313V33.6384C47.5789 34.3513 48.1754 34.9425 48.8947 34.9425H57.3684V42.6799H55.5439C55.0526 39.6893 52.4211 37.4115 49.2807 37.4115C47.4386 37.4115 45.7719 38.1939 44.614 39.4458V26.6313H47.5789ZM41.9825 42.6973H26.2982C25.807 39.7066 23.1754 37.4289 20.0351 37.4289C16.8947 37.4289 14.2632 39.7066 13.7719 42.6973H10.807V30.0218C15.3509 29.4654 18.9123 25.7793 19.2281 21.2238H41.9825V42.6973ZM9.63158 13.6255C13.4912 13.6255 16.6316 16.7379 16.6316 20.5631C16.6316 24.3883 13.4912 27.5007 9.63158 27.5007C5.77193 27.5007 2.63158 24.3883 2.63158 20.5631C2.63158 16.7379 5.77193 13.6255 9.63158 13.6255Z" fill="white"/>
<path d="M8.09705 24.5426C8.36346 24.8337 8.72502 25 9.10561 25C9.4862 25 9.84776 24.8337 10.1142 24.5426L14.5861 19.6563C15.138 19.0533 15.138 18.0552 14.5861 17.4522C14.0343 16.8493 13.1208 16.8493 12.569 17.4522L9.10561 21.2365L7.43102 19.4068C6.87916 18.8038 5.96575 18.8038 5.41389 19.4068C4.86204 20.0097 4.86204 21.0078 5.41389 21.6108L8.09705 24.5426Z" fill="white"/>
</svg>
