<svg width="77" height="62" viewBox="0 0 77 62" fill="none" xmlns="http://www.w3.org/2000/svg">
<path d="M12.18 46.06L6.66 60.07H6.34L0.8 46.06H3.58L5.78 52.2L6.55 54.53L7.32 52.2L9.44 46.06H12.18ZM21.2766 57.74V60H13.5966V46.06H20.8766V48.24H16.0966V51.5H19.8966V53.62H16.0966V57.74H21.2766ZM33.6338 46.06V60.28H33.4338L26.7538 52.66L26.1338 51.86L26.2338 53.8V60H23.7738V45.82H23.9938L30.5738 53.5L31.2738 54.41L31.1738 52.5V46.06H33.6338ZM41.7164 60.24C40.7097 60.24 39.7764 59.97 38.9164 59.43C38.0564 58.8833 37.3631 58.0533 36.8364 56.94C36.3164 55.8267 36.0564 54.46 36.0564 52.84C36.0564 51.3667 36.3164 50.1033 36.8364 49.05C37.3564 47.99 38.0597 47.1867 38.9464 46.64C39.8397 46.0933 40.8364 45.82 41.9364 45.82C42.6097 45.82 43.1797 45.8867 43.6464 46.02C44.1131 46.1467 44.4797 46.2967 44.7464 46.47C45.0131 46.6367 45.2697 46.8333 45.5164 47.06L44.3964 49.16C44.1631 48.9067 43.9564 48.7133 43.7764 48.58C43.5964 48.44 43.3664 48.33 43.0864 48.25C42.8131 48.1633 42.4631 48.12 42.0364 48.12C41.3697 48.12 40.7964 48.3167 40.3164 48.71C39.8364 49.0967 39.4697 49.6367 39.2164 50.33C38.9631 51.0167 38.8364 51.8067 38.8364 52.7C38.8364 53.82 38.9664 54.7767 39.2264 55.57C39.4931 56.3633 39.8497 56.96 40.2964 57.36C40.7497 57.76 41.2564 57.96 41.8164 57.96C42.4097 57.96 42.9331 57.8767 43.3864 57.71C43.8464 57.5433 44.1964 57.3333 44.4364 57.08L45.5364 59.06C45.1297 59.3933 44.6364 59.6733 44.0564 59.9C43.4831 60.1267 42.7031 60.24 41.7164 60.24ZM57.3233 46.06V60H54.7233V54.08H50.1233V60H47.5433V46.06H50.1233V51.88H54.7233V46.06H57.3233ZM60.6278 46.06H63.1878V60H60.6278V46.06ZM73.5286 60L69.0286 53.31V60H66.4886V46.06H69.0286V53L73.4686 46.06H76.4086L71.6586 52.98L76.7286 60H73.5286Z" fill="#FD3C6A"/>
<g clip-path="url(#clip0_340_36)">
<path d="M58.3736 26.6173C53.8142 12.5089 43.3608 22.8627 43.3608 22.8627C43.3608 22.8627 41.9151 22.9765 40.247 23.5454C36.6884 20.0182 30.016 22.18 30.016 22.18C30.016 22.18 17.6721 17.9702 19.1177 32.0787C19.785 38.1089 24.3445 41.9773 30.6832 41.9773C33.9082 41.9773 36.6884 40.9533 38.6901 39.2467C42.0263 42.3187 46.9194 42.8876 51.8125 40.612C57.8176 37.8813 60.2642 32.42 58.3736 26.6173Z" fill="#FF1744"/>
<path d="M44.8759 33.2391C44.4034 28.7885 48.0654 20.6861 51.1368 19.2026C46.8841 19.0884 42.7496 22.8543 42.7496 22.8543C42.7496 22.8543 41.332 22.9685 39.56 23.5391C39.4419 23.4249 39.3238 23.4249 39.2057 23.4249C40.8595 24.9085 41.9227 27.6473 41.4501 32.098C41.0957 35.065 39.7963 37.4615 37.7881 39.1733C39.56 40.771 43.8127 43.738 51.7275 40.6568C48.0654 39.9721 45.3484 37.6898 44.8759 33.2391Z" fill="#D50000"/>
<path d="M23.0806 33C22.5459 33 21.8774 32.6813 21.7437 32.15C20.4067 27.7936 23.6154 25.9873 24.9524 25.3498C25.6209 25.031 26.423 25.2435 26.6904 25.7748C27.0915 26.3061 26.8241 26.9436 26.1556 27.1561C24.8187 27.6874 23.4817 28.8561 24.2839 31.5125C24.4176 32.0437 24.0165 32.6813 23.348 32.7875C23.2143 33 23.2143 33 23.0806 33Z" fill="#FFCDD2"/>
<path d="M44.2814 21.659C44.1729 21.3233 44.0644 21.0994 43.9559 20.7637C43.9559 20.6518 43.8474 20.5399 43.8474 20.4279C43.7388 20.2041 43.7388 19.9803 43.6303 19.8683C43.5218 19.6445 43.5218 19.5326 43.4133 19.3088C43.3048 19.0849 43.3048 18.973 43.3048 18.7492C43.1962 18.5253 43.1962 18.3015 43.0877 18.1896C42.9792 17.9657 42.9792 17.7419 42.8707 17.5181C42.8707 17.4062 42.7622 17.2942 42.7622 17.1823C42.6536 16.9585 42.6536 16.7346 42.6536 16.5108C42.6536 16.3989 42.6536 16.287 42.5451 16.1751C42.5451 15.9512 42.4366 15.7274 42.4366 15.5035C42.4366 15.3916 42.4366 15.2797 42.3281 15.1678C42.3281 14.944 42.2196 14.7201 42.2196 14.4963V14.2724V13.6009V13.2652V12.5937V12.3698V11.6983V11.4745V10.9149V10.5792V10.1315V9.79573V9.45997C42.2196 9.34806 42.2196 9.23614 42.3281 9.0123V8.78847C42.3281 8.67655 42.4366 8.45271 42.4366 8.34079V8.11696C42.4366 7.89312 42.5451 7.7812 42.5451 7.55737V7.44545C42.5451 7.22161 42.6536 7.1097 42.6536 6.88586C43.3048 4.53558 44.39 2.96873 44.824 2.40914C44.9326 2.40914 45.0411 2.29722 45.0411 2.29722C45.5837 2.07339 45.8007 1.40188 45.5837 0.84229C45.3666 0.2827 45.0411 -0.164972 44.4985 0.0588644C44.4985 0.0588644 44.39 0.0588647 44.39 0.170783C44.2814 0.170783 44.1729 0.170783 44.0644 0.282701C43.9559 0.282701 43.9559 0.394618 43.8474 0.506536C28.7631 7.55737 29.3057 24.5689 29.3057 24.6808C29.3057 25.2404 29.8483 25.8 30.3909 25.8C31.042 25.8 31.4761 25.2404 31.4761 24.6808C31.4761 24.5689 31.042 11.5864 41.4599 4.31175C39.8321 8.45271 38.5299 15.6155 43.5218 25.2404C43.7388 25.5762 44.0644 25.8 44.4985 25.8C44.7155 25.8 44.824 25.8 45.0411 25.6881C45.4752 25.4642 45.6922 25.0166 45.5837 24.5689C45.5837 24.457 45.4752 24.2331 45.4752 24.1212C45.2581 23.6736 45.0411 23.2259 44.824 22.8901V22.7782C44.607 22.4425 44.39 21.9948 44.2814 21.659Z" fill="#795548"/>
<path d="M54.7573 14.3998C52.8201 12.2952 57.8784 0 45.0714 0C37.7531 14.6213 54.7573 14.3998 54.7573 14.3998Z" fill="#4CAF50"/>
</g>
<defs>
<clipPath id="clip0_340_36">
<rect width="40" height="42" fill="white" transform="translate(19)"/>
</clipPath>
</defs>
</svg>
