<svg width="60" height="60" viewBox="0 0 60 60" fill="none" xmlns="http://www.w3.org/2000/svg">
<g clip-path="url(#clip0_518_37)">
<path d="M54.8416 53.41L46.8983 34.2332C46.6959 33.7448 46.1359 33.5126 45.6473 33.715C45.1588 33.9175 44.9267 34.4775 45.1292 34.966L52.3101 52.3023L45.76 50.4043C45.3301 50.2796 44.8709 50.4698 44.655 50.8621L41.3654 56.8357L33.6602 38.2337C42.5534 36.5187 49.2918 28.678 49.2918 19.2918C49.2919 8.6543 40.6377 0 30.0002 0C19.3627 0 10.7084 8.6543 10.7084 19.2918C10.7084 23.6004 12.1285 27.5834 14.5249 30.7981L5.15881 53.41C5.01801 53.75 5.08452 54.1407 5.33001 54.4149C5.57537 54.6891 5.95643 54.7984 6.30992 54.696L14.0375 52.4567L17.9184 59.5044C18.0874 59.8112 18.4095 60 18.7569 60C18.7745 60 18.7922 59.9995 18.81 59.9986C19.1775 59.9782 19.5007 59.749 19.6417 59.4089L27.0633 41.4915C27.2656 41.003 27.0337 40.4429 26.5451 40.2406C26.0566 40.0383 25.4965 40.2702 25.2942 40.7588L18.6348 56.8357L15.3454 50.8621C15.1294 50.4698 14.67 50.2796 14.2403 50.4043L7.6903 52.3023L15.9112 32.4551C19.4343 36.2237 24.4465 38.5834 30.0002 38.5834C30.5735 38.5834 31.1406 38.5568 31.7013 38.5076L40.3589 59.4089C40.4997 59.749 40.8231 59.9782 41.1905 59.9985C41.2083 59.9995 41.226 60 41.2437 60C41.5911 60 41.9132 59.8112 42.082 59.5044L45.963 52.4567L53.6906 54.696C54.0444 54.7985 54.4251 54.6891 54.6706 54.4149C54.916 54.1407 54.9824 53.75 54.8416 53.41ZM12.6233 19.2918C12.6233 9.71017 20.4186 1.91489 30.0002 1.91489C39.5818 1.91489 47.377 9.71017 47.377 19.2918C47.377 28.8734 39.5818 36.6686 30.0002 36.6686C20.4186 36.6686 12.6233 28.8734 12.6233 19.2918Z" fill="white"/>
<path d="M41.0632 15.6971C40.9531 15.3578 40.663 15.1078 40.3111 15.0487L33.8685 13.9676L30.8494 8.17452C30.6845 7.85806 30.3573 7.65955 30.0004 7.65955C29.6436 7.65955 29.3163 7.85806 29.1513 8.17452L26.1322 13.9676L19.6897 15.0487C19.3377 15.1077 19.0478 15.3577 18.9375 15.6971C18.8272 16.0366 18.9148 16.4091 19.1649 16.6638L23.7415 21.3252L22.7789 27.7866C22.7263 28.1396 22.8744 28.4924 23.1632 28.7023C23.4517 28.9119 23.8333 28.9437 24.1527 28.7848L30.0004 25.8726L35.848 28.7848C35.9831 28.8521 36.1292 28.8852 36.2747 28.8852C36.4735 28.8852 36.671 28.8235 36.8376 28.7024C37.1263 28.4926 37.2744 28.1397 37.2218 27.7867L36.2594 21.3254L40.836 16.6638C41.086 16.4091 41.1735 16.0366 41.0632 15.6971ZM34.5589 20.324C34.3485 20.5384 34.2508 20.8389 34.2951 21.1358L35.0572 26.2516L30.4273 23.946C30.2927 23.8791 30.1467 23.8455 30.0004 23.8455C29.8542 23.8455 29.7079 23.8789 29.5736 23.946L24.9437 26.2516L25.7058 21.1358C25.7501 20.8389 25.6524 20.5382 25.442 20.324L21.8184 16.6331L26.9193 15.777C27.2155 15.7274 27.4712 15.5416 27.61 15.2753L30.0004 10.6887L32.3908 15.2755C32.5297 15.5418 32.7853 15.7275 33.0814 15.7772L38.1825 16.6332L34.5589 20.324Z" fill="white"/>
<path d="M44.5037 20.2576C43.9794 20.1875 43.4982 20.5567 43.4289 21.081C42.5407 27.784 36.7676 32.8389 30.0001 32.8389C22.5302 32.8389 16.453 26.7618 16.453 19.2918C16.453 11.8218 22.5302 5.74473 30.0001 5.74473C36.7677 5.74473 42.5407 10.7995 43.4289 17.5027C43.4982 18.027 43.9803 18.3964 44.5037 18.3261C45.0278 18.2566 45.3966 17.7754 45.327 17.2512C44.3134 9.59979 37.7243 3.82983 30.0001 3.82983C21.4743 3.82983 14.5381 10.766 14.5381 19.2918C14.5381 27.8177 21.4743 34.7537 30.0001 34.7537C37.7243 34.7537 44.3134 28.9837 45.3272 21.3323C45.3966 20.8083 45.0279 20.327 44.5037 20.2576Z" fill="white"/>
</g>
<defs>
<clipPath id="clip0_518_37">
<rect width="60" height="60" fill="white"/>
</clipPath>
</defs>
</svg>
