<svg width="60" height="60" viewBox="0 0 60 60" fill="none" xmlns="http://www.w3.org/2000/svg">
<path d="M43.1917 26.0079H1.34265C0.601174 26.0079 0 26.6095 0 27.3513V47.962C0 48.7046 0.601174 49.3054 1.34265 49.3054H43.1917C43.9343 49.3054 44.5358 48.7037 44.5358 47.962V27.3519C44.5358 26.6102 43.9333 26.0079 43.1917 26.0079ZM41.8491 42.382C41.4758 42.2269 41.0669 42.1402 40.6386 42.1402C38.9027 42.1402 37.4946 43.5483 37.4946 45.285C37.4946 45.7633 37.6044 46.2138 37.7952 46.6192H6.65952C6.84916 46.2138 6.95898 45.7623 6.95898 45.285C6.95898 43.5484 5.55199 42.1402 3.81606 42.1402C3.41677 42.1402 3.03785 42.2173 2.68654 42.3533V32.7566C3.03785 32.8913 3.41677 32.9699 3.81606 32.9699C5.55199 32.9699 6.95898 31.5618 6.95898 29.8252C6.95898 29.4269 6.88265 29.047 6.74697 28.6962H37.7074C37.5721 29.0463 37.4944 29.4264 37.4944 29.8252C37.4944 31.5603 38.9026 32.9699 40.6385 32.9699C41.0663 32.9699 41.475 32.8831 41.849 32.7266V42.382H41.8491ZM15.7956 32.9864H18.7505C17.2755 34.0802 16.3143 35.8288 16.3143 37.8045C16.3143 39.6122 17.1165 41.2288 18.3799 42.3288H15.7961V45.2856H28.7401V42.3288H26.2525C27.5162 41.2288 28.3172 39.6122 28.3172 37.8045C28.3172 35.8288 27.3573 34.08 25.8817 32.9864H28.7392V30.0304H15.7956V32.9864ZM20.1764 36.0366C20.1764 34.809 21.1707 33.8142 22.3986 33.8142C23.6263 33.8142 24.6218 34.809 24.6218 36.0366C24.6218 36.8181 24.2169 37.5037 23.6062 37.9002C24.7652 38.3282 25.5943 39.4398 25.5943 40.7485H19.5177C19.5177 39.5116 20.2564 38.4513 21.3157 37.9755C20.6357 37.5969 20.1764 36.8708 20.1764 36.0366ZM52.0036 19.9226V40.5328C52.0036 41.2746 51.4033 41.8762 50.6596 41.8762H45.7718V35.7543C46.3459 35.1152 47.1799 34.7106 48.1082 34.7106C48.5351 34.7106 48.9439 34.7965 49.3169 34.9532V25.2969C48.9457 25.4521 48.537 25.5389 48.1082 25.5389C46.3725 25.5389 44.9635 24.1313 44.9635 22.3942C44.9635 21.996 45.0404 21.6159 45.1775 21.2652H14.215C14.3501 21.6159 14.4268 21.9961 14.4268 22.3942C14.4268 23.366 13.9867 24.2335 13.295 24.8102H7.46808V19.922C7.46808 19.1792 8.06925 18.5786 8.8121 18.5786H50.6596C51.4017 18.5784 52.0036 19.1797 52.0036 19.9226ZM36.2076 22.6004V24.8102H23.2636V22.6004H36.2076ZM60 12.0379V32.6486C60 33.3904 59.3991 33.992 58.6576 33.992H53.7687V27.8703C54.3439 27.2302 55.1757 26.8256 56.1042 26.8256C56.5326 26.8256 56.94 26.9124 57.3141 27.068V17.4131C56.9409 17.5686 56.5336 17.6554 56.1042 17.6554C54.3678 17.6554 52.9607 16.2476 52.9607 14.5108C52.9607 14.1125 53.0371 13.7321 53.1726 13.3814H22.2122C22.3473 13.7321 22.4257 14.1126 22.4257 14.5108C22.4257 15.4822 21.9838 16.3496 21.2923 16.9266H15.4651V12.038C15.4651 11.2956 16.0665 10.6947 16.8094 10.6947H58.6576C59.3991 10.694 60 11.2955 60 12.0379ZM44.2051 14.7164V16.9265H31.2611V14.7164H44.2051Z" fill="white"/>
</svg>
