<svg width="60" height="60" viewBox="0 0 60 60" fill="none" xmlns="http://www.w3.org/2000/svg">
<g clip-path="url(#clip0_273_309)">
<path fill-rule="evenodd" clip-rule="evenodd" d="M0 30C0 13.4315 13.4315 0 30 0C46.5685 0 60 13.4315 60 30C60 46.5685 46.5685 60 30 60C13.4315 60 0 46.5685 0 30ZM31.5694 39.8451C31.5694 39.8451 32.1469 39.7821 32.4426 39.4702C32.7134 39.1845 32.704 38.6453 32.704 38.6453C32.704 38.6453 32.668 36.1273 33.8591 35.7554C35.033 35.3897 36.5401 38.1905 38.1398 39.2675C39.348 40.0817 40.2651 39.9035 40.2651 39.9035L44.5395 39.8451C44.5395 39.8451 46.7745 39.7099 45.7149 37.9846C45.6273 37.8433 45.0966 36.708 42.5378 34.3758C39.8566 31.9346 40.2166 32.3294 43.4439 28.1061C45.4098 25.5343 46.1954 23.9641 45.9496 23.2929C45.7165 22.6506 44.2702 22.8211 44.2702 22.8211L39.4591 22.8504C39.4591 22.8504 39.1022 22.8028 38.8377 22.9579C38.5795 23.11 38.412 23.4649 38.412 23.4649C38.412 23.4649 37.6514 25.4544 36.6356 27.1474C34.493 30.7179 33.6369 30.9067 33.2863 30.6856C32.4709 30.1679 32.6743 28.6085 32.6743 27.5008C32.6743 24.0395 33.2096 22.5969 31.6335 22.2235C31.1108 22.0991 30.7257 22.0176 29.3875 22.0039C27.6706 21.987 26.2181 22.01 25.3949 22.4049C24.8471 22.6675 24.4245 23.2544 24.6828 23.2882C25.0005 23.3296 25.7205 23.4788 26.1024 23.9888C26.5954 24.6479 26.5781 26.1258 26.5781 26.1258C26.5781 26.1258 26.8615 30.2001 25.9161 30.7055C25.2681 31.0527 24.3791 30.3445 22.4681 27.1044C21.49 25.4452 20.7512 23.6109 20.7512 23.6109C20.7512 23.6109 20.6087 23.2682 20.3536 23.0839C20.0454 22.8611 19.6149 22.792 19.6149 22.792L15.0433 22.8211C15.0433 22.8211 14.3561 22.8396 14.1041 23.133C13.8804 23.3926 14.0869 23.9319 14.0869 23.9319C14.0869 23.9319 17.6664 32.1528 21.72 36.2962C25.4371 40.094 29.6568 39.8451 29.6568 39.8451H31.5694Z" fill="#53475C"/>
</g>
<defs>
<clipPath id="clip0_273_309">
<rect width="60" height="60" fill="white"/>
</clipPath>
</defs>
</svg>
