<svg width="60" height="60" viewBox="0 0 60 60" fill="none" xmlns="http://www.w3.org/2000/svg">
<g clip-path="url(#clip0_273_311)">
<path fill-rule="evenodd" clip-rule="evenodd" d="M60 30C60 46.5685 46.5685 60 30 60C13.4315 60 0 46.5685 0 30C0 13.4315 13.4315 0 30 0C46.5685 0 60 13.4315 60 30ZM20.0894 27.2519C17.0841 28.564 13.9964 29.9123 11.1728 31.4675C9.69846 32.547 11.658 33.3106 13.4964 34.0269C13.7886 34.1408 14.0778 34.2534 14.3496 34.3659C14.5759 34.4355 14.8059 34.5088 15.039 34.583C17.0836 35.2344 19.3634 35.9608 21.3484 34.8681C24.6091 32.995 27.6863 30.8295 30.7611 28.6656C31.7685 27.9566 32.7756 27.2479 33.7889 26.5496C33.8364 26.5193 33.8899 26.4845 33.9485 26.4466C34.8116 25.887 36.753 24.6286 36.0349 26.3626C34.3369 28.2196 32.518 29.8634 30.6894 31.5162C29.4569 32.6301 28.2199 33.7481 27.0124 34.9381C25.9607 35.7926 24.8686 37.511 26.0462 38.7076C28.7586 40.6064 31.5134 42.4591 34.2665 44.3109C35.1624 44.9134 36.0583 45.5159 36.9523 46.1199C38.4675 47.3296 40.8356 46.351 41.1688 44.4606C41.3169 43.591 41.4656 42.7215 41.6144 41.8519C42.4364 37.046 43.2586 32.2384 43.985 27.4169C44.0837 26.6605 44.1956 25.9042 44.3076 25.1476C44.579 23.3137 44.8508 21.4776 44.9356 19.6339C44.7169 17.7939 42.4859 18.1985 41.2444 18.6122C34.8629 21.0405 28.5451 23.6488 22.2524 26.303C21.5395 26.6187 20.8169 26.9342 20.0894 27.2519Z" fill="#53475C"/>
</g>
<defs>
<clipPath id="clip0_273_311">
<rect width="60" height="60" fill="white"/>
</clipPath>
</defs>
</svg>
