<svg width="60" height="60" viewBox="0 0 60 60" fill="none" xmlns="http://www.w3.org/2000/svg">
<g clip-path="url(#clip0_273_336)">
<path d="M30 0C13.5 0 0 13.5 0 30C0 46.5 13.5 60 30 60C46.5 60 60 46.5 60 30C60 13.5 46.5 0 30 0ZM21.3 42C14.7 42 9.3 36.6 9.3 30C9.3 23.4 14.7 18 21.3 18C24.3 18 27.3 19.2 29.4 21.3L26.1 24.6C24.9 23.4 23.1 22.8 21.3 22.8C17.4 22.8 14.1 26.1 14.1 30C14.1 33.9 17.4 37.2 21.3 37.2C24.6 37.2 27 35.1 27.9 32.4H21.3V27.9H32.7C33.6 32.7 31.5 42 21.3 42ZM46.2 32.1V36.3H42V32.1H37.8V27.9H42V23.7H46.2V27.9H50.4V32.1H46.2Z" fill="#53475C"/>
</g>
<defs>
<clipPath id="clip0_273_336">
<rect width="60" height="60" fill="white"/>
</clipPath>
</defs>
</svg>
