<svg width="60" height="60" viewBox="0 0 60 60" fill="none" xmlns="http://www.w3.org/2000/svg">
<g clip-path="url(#clip0_273_313)">
<path d="M29.9997 0C13.431 0 0 13.4319 0 30C0 46.5676 13.4315 60 29.9997 60C46.568 60 60 46.5676 60 30C60 13.4319 46.568 0 29.9997 0ZM44.2882 26.5453C43.9313 30.8149 40.808 35.7968 37.9228 37.2201C35.0366 38.6435 31.9522 38.6435 30.1735 37.7736C30.1735 37.7736 27.8802 36.3897 27.5643 35.9939C27.3667 36.1521 26.7338 40.0664 25.7851 42.5174C24.8363 44.9684 23.5317 47.3804 21.6731 48.4874C21.0013 46.2735 21.436 40.8175 22.7406 35.9939C24.0463 31.1708 24.5598 28.9169 24.5598 28.9169C24.5598 28.9169 22.8994 25.7537 24.5204 22.2751C26.1414 18.796 29.1853 19.5866 29.7788 20.1401C30.3722 20.6935 31.4392 21.1282 30.5693 24.6867C29.6994 28.2451 28.2366 31.7242 29.4623 33.6223C30.2129 34.6898 34.2066 35.5592 36.4595 32.5547C38.2787 29.5103 38.9909 28.1269 39.0697 23.3427C39.0697 23.3427 39.1548 15.6671 32.3081 15.1987C26.5362 14.8029 23.8704 17.2689 22.1083 18.9937C20.2502 20.8123 18.8667 25.7931 20.6061 28.5611C21.476 29.7863 21.5154 30.498 21.3966 31.2097C21.2778 31.9214 20.7243 32.9889 20.7243 32.9889C20.7243 32.9889 15.8223 32.1195 15.5853 26.1096C15.3477 20.1001 18.1545 16.6604 20.6455 14.7629C23.1369 12.8654 27.459 10.4404 35.9989 12.022C41.639 13.5517 45.197 18.4013 44.2882 26.5453Z" fill="#53475C"/>
</g>
<defs>
<clipPath id="clip0_273_313">
<rect width="60" height="60" fill="white"/>
</clipPath>
</defs>
</svg>
