<svg width="60" height="60" viewBox="0 0 60 60" fill="none" xmlns="http://www.w3.org/2000/svg">
<path d="M30 55C39.9245 55 48 46.7002 48 36.5C48 26.2998 39.9245 18 30 18C20.0755 18 12 26.2998 12 36.5C12 46.7002 20.0755 55 30 55ZM30 21.5956C37.9949 21.5956 44.4981 28.2794 44.4981 36.4964C44.4981 44.7134 37.9949 51.3972 30 51.3972C22.0051 51.3972 15.5019 44.7134 15.5019 36.4964C15.5019 28.2794 22.0051 21.5956 30 21.5956Z" fill="white"/>
<path d="M30 60C43.2318 60 54 49.4312 54 36.437C54 29.2844 50.7243 22.8791 45.5832 18.5521L49.5554 14.6522L50.8739 15.9466C51.5365 16.5972 52.6136 16.5972 53.2762 15.9466C53.9388 15.2961 53.9388 14.2385 53.2762 13.588L48.1589 8.5638C47.4962 7.91326 46.4191 7.91326 45.7565 8.5638C45.4235 8.88741 45.257 9.31443 45.257 9.74145C45.257 10.1685 45.4235 10.5955 45.7531 10.9224L47.1531 12.2969L42.8138 16.5571C39.5517 14.5254 35.7664 13.2477 31.699 12.9675V10.6689C33.9417 9.9583 35.5795 7.91326 35.5795 5.4779C35.5795 2.45872 33.0752 0 30 0C26.9248 0 24.4205 2.45872 24.4205 5.4779C24.4205 7.91326 26.0583 9.9583 28.301 10.6689V12.9608C15.861 13.8215 6 24.01 6 36.437C6.0034 49.4279 16.7682 60 30 60ZM30 3.33611C31.2029 3.33611 32.1815 4.29691 32.1815 5.4779C32.1815 6.65888 31.2029 7.62302 30 7.62302C28.7971 7.62302 27.8185 6.66222 27.8185 5.4779C27.8185 4.29691 28.7971 3.33611 30 3.33611ZM30 16.2135C41.3595 16.2135 50.602 25.2877 50.602 36.4404C50.602 47.593 41.3595 56.6672 30 56.6672C18.6405 56.6672 9.39799 47.593 9.39799 36.4404C9.39799 25.2877 18.6405 16.2135 30 16.2135Z" fill="white"/>
<path d="M24.96 44C25.4625 44 25.965 43.8194 26.3497 43.462L32.4229 37.7617C32.6035 37.5922 32.7487 37.3896 32.8469 37.1685C32.945 36.9511 32.9921 36.7153 32.9961 36.4757L33 36.461V27.8424C33 26.8254 32.1206 26 31.0371 26C29.9536 26 29.0742 26.8254 29.0742 27.8424V35.6983L23.5741 40.8606C22.8086 41.5791 22.8086 42.7472 23.5741 43.4657C23.955 43.8194 24.4575 44 24.96 44Z" fill="white"/>
</svg>
